<?xml version="1.0" encoding="utf-8"?>
<!-- Generator: Adobe Illustrator 22.1.0, SVG Export Plug-In . SVG Version: 6.00 Build 0)  -->
<svg version="1.1" id="Layer_1" xmlns="http://www.w3.org/2000/svg" xmlns:xlink="http://www.w3.org/1999/xlink" x="0px" y="0px"
	 viewBox="0 0 137 40" enable-background="new 0 0 137 40" xml:space="preserve">
<path id="Fill-1" fill="#e43939" d="M64.5,1.2c-4.9,0-9.4,1.8-12.6,5c-3.5,3.4-5.3,8.2-5.3,13.9c0,11,7.4,18.8,17.9,18.8
	c4,0,8.6-1.4,11.4-3.4l0.1,0V33l-0.2,0.2c-3.2,2.3-7,3.5-11.2,3.5C55.2,36.7,49,30,49,20.1c0-9.8,6.4-16.7,15.6-16.7
	c4.2,0,8,1.2,11.2,3.5L76,7.2V4.7l-0.1,0C73.1,2.6,68.5,1.2,64.5,1.2"/>
<path id="Fill-2" fill="#e43939" d="M85.5,36.7c-0.8,0-1.2-0.3-1.2-2.1v-33L82,2v32.8c0,2.5,0.9,3.7,2.9,3.7c1,0,1.6-0.4,1.8-0.6
	l0.1,0v-1.6l-0.2,0.1C86.2,36.6,85.9,36.7,85.5,36.7"/>
<path id="Fill-3" fill="#e43939" d="M110.9,36.7c-0.8,0-1.2-0.3-1.2-2.1V17.4h-2.3v12.1c0,3.8-4.4,7.2-8,7.2c-3.7,0-5.4-2-5.4-6.3
	V17.4h-2.3v13c0,5.4,2.6,8.3,7.3,8.3c3.2,0,6.6-2,8.4-4.7v0.7c0,2.5,0.9,3.7,2.9,3.7c1,0,1.6-0.4,1.8-0.6l0.1,0v-1.6l-0.2,0.1
	C111.6,36.6,111.3,36.7,110.9,36.7"/>
<path id="Fill-4" fill="#e43939" d="M132.6,34.6c-1.4,1.1-3.9,2.2-6.2,2.2c-2.7,0-8.8-0.9-8.8-9.1c0-0.3,0-0.7,0-0.9h15.6l0-0.1
	c0.1-0.5,0.1-1.4,0.1-1.9c0-4.5-3.6-7.9-8.4-7.9c-4.7,0-9.6,3.8-9.6,10.9c0,6.7,4.1,11.1,10.2,11.1c3.1,0,6.1-1,8-2.6l0.1-0.1
	l-0.8-1.6L132.6,34.6z M117.7,24.9c1-3.9,3.7-6.3,7.3-6.3c3.4,0,6,2.3,6.1,5.5v0.8H117.7L117.7,24.9z"/>
<path id="Fill-5" fill="#e43939" d="M36,10.1c-1.8-3.2-5.1-5-8.5-5.1c-1.8-2.9-5-4.8-8.7-4.8S11.8,2.1,10,5
	c-3.4,0.1-6.7,1.9-8.5,5.1c-1.8,3.2-1.8,6.9-0.2,10c-1.6,3-1.7,6.8,0.2,10c1.8,3.2,5.1,5,8.5,5.1c1.8,2.9,5,4.8,8.7,4.8
	s6.9-1.9,8.7-4.8c3.4-0.1,6.7-1.9,8.5-5.1c1.8-3.2,1.8-6.9,0.2-10C37.7,17,37.8,13.3,36,10.1z M28.1,6.2c2.8,0.3,5.4,2,6.8,4.5
	c1.5,2.6,1.6,5.6,0.5,8.1c-0.8-1.1-1.9-2.1-3.2-2.9c-1.3-0.8-2.7-1.2-4.2-1.3c0.6-1.3,0.9-2.7,0.9-4.3C29,8.9,28.7,7.5,28.1,6.2z
	 M28.1,15.9c1.2,0.1,2.4,0.5,3.5,1.2c1.3,0.7,2.4,1.8,3.1,3c-0.8,1.2-1.8,2.3-3.1,3c-1.1,0.6-2.3,1-3.5,1.2c0.6-1.3,0.9-2.7,0.9-4.2
	S28.7,17.2,28.1,15.9z M18.7,1.3c3,0,5.6,1.4,7.3,3.7c-1.4,0.1-2.8,0.6-4.1,1.3c-1.3,0.8-2.4,1.8-3.2,2.9c-0.8-1.2-1.9-2.2-3.2-2.9
	c-1.3-0.7-2.7-1.2-4.1-1.3C13.1,2.8,15.7,1.3,18.7,1.3z M20.4,23.1c1.6,1.3,3.5,2.1,5.5,2.4c-1.5,2-3.7,3.3-6.3,3.6
	C20.5,27.2,20.8,25.1,20.4,23.1z M20.4,17c0.4-2,0.1-4.1-0.7-6c2.6,0.3,4.8,1.6,6.3,3.6C24,14.9,22,15.7,20.4,17z M17.7,29
	c-2.6-0.3-4.8-1.6-6.3-3.6c2-0.2,4-1,5.5-2.4C16.6,25.1,16.9,27.2,17.7,29z M17,17c-1.6-1.3-3.5-2.1-5.5-2.4c1.5-2,3.7-3.3,6.3-3.6
	C16.9,12.9,16.6,15,17,17z M10.7,6.2c1.5,0.1,2.9,0.5,4.2,1.2c1.1,0.6,2,1.5,2.8,2.5c-3,0.3-5.6,1.9-7.2,4.2
	c-0.5-1.1-0.8-2.3-0.8-3.6C9.7,8.9,10,7.4,10.7,6.2z M10.4,16.4c1.2,1.6,2.9,2.9,4.8,3.6c-1.9,0.7-3.6,2-4.8,3.6
	c-0.5-1.1-0.8-2.3-0.8-3.6C9.7,18.8,9.9,17.5,10.4,16.4z M9.3,33.9c-2.8-0.3-5.4-2-6.8-4.5c-1.5-2.6-1.6-5.6-0.5-8.1
	c0.8,1.1,1.9,2.1,3.2,2.9c1.3,0.8,2.7,1.2,4.2,1.3c-0.6,1.3-0.9,2.7-0.9,4.3C8.4,31.2,8.8,32.6,9.3,33.9z M9.3,24.2
	c-1.2-0.1-2.4-0.5-3.5-1.2c-1.3-0.8-2.4-1.8-3.1-3c0.8-1.2,1.8-2.3,3.1-3c1.1-0.6,2.3-1,3.5-1.2c-0.6,1.3-0.9,2.7-0.9,4.2
	S8.8,22.9,9.3,24.2z M5.2,16c-1.3,0.7-2.3,1.7-3.2,2.9c-1.1-2.5-1-5.6,0.5-8.1c1.4-2.5,4-4.1,6.8-4.5c-0.6,1.3-0.9,2.7-0.9,4.2
	c0,1.5,0.3,3,0.9,4.3C8,14.8,6.5,15.2,5.2,16z M9.7,29.7c0-1.3,0.3-2.5,0.8-3.6c1.7,2.3,4.3,3.9,7.2,4.2c-0.7,1-1.6,1.8-2.8,2.5
	c-1.3,0.7-2.7,1.1-4.2,1.2C10,32.7,9.7,31.2,9.7,29.7z M18.7,38.8c-3,0-5.6-1.4-7.3-3.7c1.4-0.1,2.8-0.6,4.1-1.3
	c1.3-0.8,2.4-1.8,3.2-2.9c0.8,1.2,1.9,2.2,3.2,2.9c1.3,0.7,2.7,1.2,4.1,1.3C24.3,37.3,21.7,38.8,18.7,38.8z M26.7,33.9
	c-1.5-0.1-2.9-0.5-4.2-1.2c-1.1-0.6-2-1.5-2.8-2.5c3-0.3,5.6-1.9,7.2-4.2c0.5,1.1,0.8,2.3,0.8,3.6C27.8,31.2,27.4,32.7,26.7,33.9z
	 M27,23.7c-1.2-1.6-2.9-2.9-4.8-3.6c1.9-0.7,3.6-2,4.8-3.6c0.5,1.1,0.8,2.3,0.8,3.6C27.8,21.3,27.5,22.6,27,23.7z M27,14
	c-1.7-2.3-4.3-3.9-7.2-4.2c0.7-1,1.6-1.8,2.8-2.5c1.3-0.7,2.7-1.1,4.2-1.2c0.7,1.3,1,2.7,1,4.2C27.8,11.7,27.5,12.9,27,14z
	 M34.9,29.4c-1.4,2.5-4,4.1-6.8,4.5c0.6-1.3,0.9-2.7,0.9-4.2c0-1.5-0.3-3-0.9-4.3c1.4-0.1,2.8-0.6,4.2-1.3c1.3-0.7,2.3-1.7,3.2-2.9
	c0.2,0.4,0.3,0.8,0.4,1.3C36.4,24.9,36.1,27.3,34.9,29.4L34.9,29.4z"/>
<path id="Fill-6" fill="#e43939" d="M135.2,16.3l-0.3-0.7h-0.2v0.7h-0.3l0-1.7h0.5c0.4,0,0.6,0.3,0.6,0.5c0,0.2-0.1,0.4-0.4,0.5
	l0.3,0.7H135.2z M134.6,15.5h0.3c0.2,0,0.3-0.1,0.3-0.3c0-0.2-0.1-0.3-0.3-0.3h-0.3V15.5L134.6,15.5z"/>
<path id="Fill-7" fill="#e43939" d="M134.8,17c-0.8,0-1.5-0.7-1.5-1.5c0-0.8,0.7-1.5,1.5-1.5c0.8,0,1.5,0.7,1.5,1.5
	C136.4,16.3,135.7,17,134.8,17z M134.8,14.2c-0.7,0-1.3,0.6-1.3,1.3c0,0.7,0.6,1.3,1.3,1.3c0.7,0,1.3-0.6,1.3-1.3
	C136.1,14.8,135.5,14.2,134.8,14.2L134.8,14.2z"/>
</svg>
