<?xml version="1.0" encoding="utf-8"?>
<!-- Generator: Adobe Illustrator 22.1.0, SVG Export Plug-In . SVG Version: 6.00 Build 0)  -->
<svg version="1.1" id="Layer_1" xmlns="http://www.w3.org/2000/svg" xmlns:xlink="http://www.w3.org/1999/xlink" x="0px" y="0px"
	 viewBox="0 0 2173.4 822.5" enable-background="new 0 0 2173.4 822.5" xml:space="preserve">
<polygon fill="#FFFFFF" points="0,279.1 2173.4,0 2099.3,691.4 30.5,822.5 "/>
<path id="path0_fill" fill="#B57EE5" d="M101.3,691.4l-24-492h-18l18,492H101.3z"/>
<path id="path1_fill" fill="#F1618C" d="M111.3,691.4l-24-492l392-28v538L111.3,691.4z"/>
<path id="path2_fill" fill="#FFFFFF" d="M379.3,243.4l5-67l47-4v71L407.6,222L379.3,243.4z"/>
<path id="path3_fill" fill="#6DABF5" d="M1207.3,363.8h-65.6c0,12.3,0,24.6,0,36.5c0,47.1-0.4,84.9-0.4,84.9
	c0,23.3-9.7,29.5-22,29.5c-12.8,0-19.4-5.7-19.4-30.4c0-36.1,2.6-107.4,2.6-107.4l-65.6-1.8c0-0.9-2.2,54.6-2.2,120.1
	s41.4,70.4,60.3,70.4c18,0,37.8-7,48.4-18.5c0,37.4-11.9,49.7-38.3,49.7c-16.7,0-37-8.4-48-17.6v60.3c18.5,11,39.2,15.8,59.8,15.8
	c44,0,87.1-25.5,88-99C1206.5,474.7,1206.9,392.8,1207.3,363.8z M1538.4,363.4c-66.9,0-95.5,53.7-95.5,117.5
	c0,54.1,26.4,94.6,89.3,94.6c70.4,0,95.5-52.8,95.5-114C1627.8,404.7,1603.1,363.4,1538.4,363.4z M1561.8,469.8
	c0,28.6-9.7,50.6-29.5,50.6c-16.7,0-23.3-19.4-23.3-39.6c0-32.6,11.4-57.6,29.5-57.6C1556.9,423.2,1561.8,447.4,1561.8,469.8z"/>
<path id="path4_fill" fill="#F3AD38" d="M554.6,575.9c33.9,0.4,66.4-4,66.4-4c0-57.6,0-111.8,0.4-152.7c17.6-1.8,32.1-4,32.1-4
	c0.9-27.7-1.3-52.8-1.3-52.8l-29.9,1.8c0.9-41.8,1.8-63.4,1.8-63.4l-70.4,4.4c0,0,0,26,0.4,65.6c-21.6,2.6-37.4,7-37.4,7
	c0.9,23.3,9.2,48.4,9.2,48.4l28.6-1.3V575.9z"/>
<path id="path5_fill" fill="#B57EE6" d="M951.8,390.6c0-6.6,0.4-13.6,0.9-20.7l-61.2-2.2c0,0-5.7,89.8-5.3,207.7
	c29.5,2.2,63.8,2.2,63.8,2.2c-0.4,0,0-39.2,1.8-98.1c0.9-34.3,13.2-44.9,31.7-44.9c11,0,24.6,4.8,24.6,4.8l7-61.2
	C986.6,368.6,960.2,377,951.8,390.6z"/>
<path id="path6_fill" fill="#F16161" d="M1305.3,574.6c0-9.7,0.9-18.5,0.9-22c7.5,11,22,20.7,40,20.7c50.6,0,72.6-49.7,73.9-108.7
	c0.9-55.9-20.2-102.5-66.9-102.5c-17.2,0-31.7,9.2-39.6,18.9c4-65.6,7-107.4,7-107.4l-66.4-4.8c-4,45.8-10.1,197.1-9.2,307.6
	C1283.3,577.2,1305.3,574.6,1305.3,574.6z M1309.3,487c-0.9-11.9-3.1-64.7,22.4-64.7c18,0,22.4,22,21.6,44
	c-0.4,23.8-5.3,50.6-23.8,50.6C1316.7,516.9,1310.6,507.7,1309.3,487z"/>
<path id="path7_fill" fill="#B57EE5" d="M2066.1,377.9l-69.1-9.2c0,0-23.8,35.6-57.2,76.6c5.3-93.7,11.9-156.6,11.9-156.6L1880,282
	c0,0-7.9,162.8-9.7,292.2c29.9,3.5,64.7,3.5,64.7,3.5l2.2-77.4c32.6,37,69.1,75.2,69.1,75.2l76.1-12.3c-44-44-73.9-74.8-88.4-94.2
	C2010.6,446.5,2040.6,410.9,2066.1,377.9z"/>
<path id="path8_fill" fill="#A2E05E" d="M765.4,363.4c-66.9,0-95.5,53.7-95.5,117.5c0,54.1,26.4,94.6,89.3,94.6
	c70.4,0,95.5-52.8,95.5-114C854.7,404.7,830.1,363.4,765.4,363.4z M788.7,469.8c0,28.6-9.7,50.6-29.5,50.6
	c-16.7,0-23.3-19.4-23.3-39.6c0-32.6,11.4-57.6,29.5-57.6C783.9,423.2,788.7,447.4,788.7,469.8z M1747.7,363.4
	c-66.9,0-95.5,53.7-95.5,117.5c0,54.1,26.4,94.6,89.3,94.6c70.4,0,95.5-52.8,95.5-114C1837,404.7,1812.4,363.4,1747.7,363.4z
	 M1771,469.8c0,28.6-9.7,50.6-29.5,50.6c-16.7,0-23.3-19.4-23.3-39.6c0-32.6,11.4-57.6,29.5-57.6
	C1766.2,423.2,1771,447.4,1771,469.8z"/>
<path id="path9_fill" fill="#FFFFFF" d="M316.5,382l77.3-1.9c1.9-74.9-37-111.8-104.6-111.8s-105.6,38.4-105.6,96
	c0,100.3,129.6,102.2,129.6,157c0,15.4-7.2,24.5-23,24.5c-20.6,0-28.8-13.4-27.8-50.9h-81.1c-6.2,92.6,48,113.8,109.9,113.8
	c60,0,107-27.8,107-88.3c0-107.5-131.5-104.6-131.5-157.9c0-21.6,15.4-24.5,24.5-24.5C300.7,337.8,318,341.6,316.5,382z"/>
</svg>
